<?xml version="1.0" encoding="utf-8"?>
<!-- Generator: Adobe Illustrator 16.0.0, SVG Export Plug-In . SVG Version: 6.00 Build 0)  -->
<!DOCTYPE svg PUBLIC "-//W3C//DTD SVG 1.1//EN" "http://www.w3.org/Graphics/SVG/1.1/DTD/svg11.dtd">
<svg version="1.1" id="Layer_1" xmlns="http://www.w3.org/2000/svg" xmlns:xlink="http://www.w3.org/1999/xlink" x="0px" y="0px"
	 width="141.732px" height="141.732px" viewBox="-307.877 196.521 141.732 141.732"
	 enable-background="new -307.877 196.521 141.732 141.732" xml:space="preserve">
<g>
	<path fill-rule="evenodd" clip-rule="evenodd" fill="#FFFFFF" d="M-236.747,225.533c21.521,0,39.073,17.553,39.073,39.073
		c0,21.519-17.552,39.072-39.073,39.072s-39.075-17.554-39.075-39.072C-275.822,243.086-258.267,225.533-236.747,225.533
		L-236.747,225.533z M-236.747,227.296c20.549,0,37.309,16.761,37.309,37.311c0,20.549-16.759,37.309-37.309,37.309
		c-20.55,0-37.311-16.76-37.311-37.309C-274.057,244.057-257.297,227.296-236.747,227.296L-236.747,227.296z"/>
	<path fill-rule="evenodd" clip-rule="evenodd" fill="#FFFFFF" d="M-236.925,221.46c23.746,0,43.114,19.367,43.114,43.113
		c0,23.747-19.368,43.115-43.114,43.115s-43.115-19.368-43.115-43.115C-280.039,240.827-260.671,221.46-236.925,221.46
		L-236.925,221.46z M-236.925,223.186c22.795,0,41.388,18.593,41.388,41.388c0,22.796-18.592,41.389-41.388,41.389
		s-41.389-18.593-41.389-41.389C-278.313,241.778-259.72,223.186-236.925,223.186L-236.925,223.186z"/>
	<path fill-rule="evenodd" clip-rule="evenodd" fill="#FFFFFF" d="M-235.713,234.021c-1.332-0.799-1.562-0.543-3.024-0.418
		c-0.491-0.113-1.03-0.764-1.313-1.32l1.168-0.676c2.514,0.467,2.84,1.512,7.648,0.18
		C-232.056,233.479-234.09,234.09-235.713,234.021L-235.713,234.021z M-235.57,234.972c1.175,0.476,2.525,0.296,4.08-0.52
		c-0.441,1.049-1.826,2.248-3.33,2.093c0.86,0.705,1.139,0.733,2.291,0.898c-3.703,1.874-4.833-1.541-5.101-1.925
		C-236.943,235.336-236.355,235.611-235.57,234.972L-235.57,234.972z M-235.764,245.787c0.09-1.238,1.208-1.146,2.203-1.514
		c3.716,3.715,7.867,6.248,13.861,7.709v1.434C-225.268,253.188-232.025,250.158-235.764,245.787L-235.764,245.787z
		 M-236.871,257.114c-2.533-0.965-3.434-0.48-4.823-0.398l0.041-1.63c1.153-0.686,3.735-2.196,5.112-2.979
		c1.547,0.937,3.527,2.179,5.069,3.021l-0.042,1.525C-233.599,256.587-234.878,256.497-236.871,257.114L-236.871,257.114z
		 M-216.32,259.407c-0.134-3.992-0.103-7.038-0.067-10.517c0.88-0.938,1.309-2.102,2.144-3.036
		c0.184,11.508-0.933,13.725,0.337,15.189C-214.302,261.33-216.01,260.955-216.32,259.407L-216.32,259.407z M-235.415,262.39
		c-0.315-0.211-0.648-0.441-0.333-0.441c0.404-0.405,0.852-0.717,1.141-0.852c0,0,0.476,0.215,0.312,0.568
		C-234.441,261.737-234.101,261.364-235.415,262.39L-235.415,262.39z M-235.594,263.11l-0.031-0.525l0.927-0.38
		c0.276-0.085,0.599-0.259,0.897,0.015c-0.052,0.259-0.171,0.541-0.693,0.711L-235.594,263.11L-235.594,263.11z M-259.484,260.97
		c1.234-2.115,0.792-9.796,0.792-14.489h0.105c0.538,0.897,1.315,1.975,1.937,2.734c-0.05,3.256,0.159,6.288-0.214,9.671
		C-257.59,260.461-258.853,260.97-259.484,260.97L-259.484,260.97z M-213.501,260.522c0.058-5.458,0.176-10.808,0.139-16.158
		c0.973,0.522,1.467,0.739,2.5,1.185c-0.023,10.496-1.015,14.798,0.405,16.462C-211.907,262.382-212.786,261.831-213.501,260.522
		L-213.501,260.522z M-263.391,262.688c2.174-2.899,0.823-7.829,1.43-16.421c1.19-0.664,1.219-0.87,2.218-1.468
		c0.09,4.53-0.019,8.029,0.086,11.917C-259.657,260.866-260.42,261.62-263.391,262.688L-263.391,262.688z M-241.75,261.181
		c0.57-1.955,0.978,0.516,0.72,0.497c0.139-0.104,0.332-0.263,0.526-0.427c0.133,0.762,0.158,1.424,0.096,1.846
		c-0.102-0.079-1.094,0.787-1.339,0.527C-242.734,262.78-243.757,261.48-241.75,261.181L-241.75,261.181z M-231.06,264.165
		c-0.277-0.049-0.485-0.301-0.515-0.529c0.27-0.939,0.243-1.11,0.884-1.088c0.265,0.051,0.532,0.17,0.642,0.689
		C-230.453,264.129-230.723,264.103-231.06,264.165L-231.06,264.165z M-231.927,263.993c-0.443,0.307-0.894,0.718-1.14,1.02
		c-0.582-0.152-0.746-0.76-1.155-1.381c0.532-0.424,1.134-0.656,1.761,0.141c-0.072-0.335,0.112-0.639-1.021-1.146
		c0.923-1.225,1.224-1.19,1.618-1.53c0.195-0.232-0.03-0.701-0.254-0.385c-0.582,0.523-1.038,1.252-1.99,1.073
		c1.544-1.552,1.642-2.923,1.748-2.713c-0.199-0.03-0.316-0.474-0.639,0.196c-0.208,0.812-0.705,1.501-2.438,1.861
		c-0.316,0.21-0.205,0.678-1.116,0.971c0.03,0.692-0.139,0.776-0.312,0.863l0.082-5.358c1.992-1.384,4.815-0.085,6.768-0.15v4.306
		C-231.821,262.313-231.867,263.703-231.927,263.993L-231.927,263.993z M-232.783,266.433c-1.513-0.361-3.78-3.133-2.669-3.066
		c0.912-0.281,1.589,1.654,2.258,2.084c0.106,0.105,0.517-0.672,1.181-1.107c0.209-0.105,0.593-0.208,0.593,0.315
		C-231.42,264.87-232.363,266.433-232.783,266.433L-232.783,266.433z M-243.776,261.916c0.475-0.538,0.91-0.782,1.071-1.349
		c0.176-0.628,0.134-1.094,0.421-1.421c0.205-0.143,0.106,0.614,0.469,0.64c-0.03-0.557-0.297-1.741,0.788-1.617
		c-0.786,0.951,0.681,1.262,0.733,1.576c0.702,0.984,0.306,2.066,0.236,2.957c0.64-0.055,1.157-0.025,0.56,1.201
		c0.212-0.035,0.354,0.303,0.217,1.275c1.139,1.629,1.391,4,2.2,3.689v-11.266c-2.353-1.65-5.176,0.202-7.034-0.252l0.184,13.943
		c1.926,0.787,4.668-0.539,6.85,0.43v-2.1c-0.389,0.157-0.407,0.602-1.167,0.469c-0.076-0.107-0.36-0.328,0.179-0.929
		c-1.007-1.274-1.629-2.19-2.535-3.558c-0.618,0.156-1.063,0.041-0.796-0.689c0.126-0.345-1.818,0.511-0.692-1.179
		C-242.502,263.203-243.183,263.561-243.776,261.916L-243.776,261.916z M-216.504,269.854c-0.313-3.092,0.012-5.761,0.076-8.735
		c0.686,0.343,1.335,0.821,2.06,0.989c0.297,3.135-0.718,6.23,0.574,9.402C-215.109,271.458-215.92,271.085-216.504,269.854
		L-216.504,269.854z M-236.762,271.685l-0.102-7.331c0.079,0.041,0.47-0.052,0.649,0.601c0.511,0.619,0.928,1.361,0.234,1.576
		c0.023,0.113,0.049,0.275,0.13,0.426c0.719,0.085,0.686-1.399,0.791-1.504c0.21,0,1.096,0.953,2.348,1.307
		c1.114-0.507,1.159-2.458,2.85-2.867l-0.029,7.521C-234.085,272.712-233.771,270.958-236.762,271.685L-236.762,271.685z
		 M-213.647,270.434c-0.002-2.687-0.294-4.401,0.124-7.931c0.793,0.421,1.607,0.774,2.373,1.076
		c-0.012,3.548-0.605,7.282,0.401,8.559C-212.136,272.267-213.139,271.827-213.647,270.434L-213.647,270.434z M-259.847,271.807
		c1.782-1.489,0.566-7.157,0.971-10.157c1.181-0.488,0.968-0.586,1.848-0.982c-0.3,3.803,0.273,5.361-0.197,8.953
		C-257.527,271.177-259.954,272.438-259.847,271.807L-259.847,271.807z M-262.79,272.228c1.423-0.586,0.397-6.414,0.712-9.146
		l2.124-0.979c0.193,3.42-0.083,6.822,0.142,8.412C-260.832,272.48-262.37,272.333-262.79,272.228L-262.79,272.228z
		 M-242.167,278.193c-5.106-5.615-7.712-14.252-7.575-20.093c0.59-0.215,4.933-1.855,7.387-2.815l0.083,1.6
		c-1.288,0.037-2.072-0.161-2.655,1.155v14.41c0.748,0.225,2.027,0.321,2.801,0.191L-242.167,278.193L-242.167,278.193z
		 M-231.497,278.319c5.002-5.366,6.876-12.568,7.779-20.291c-1.237-0.59-3.83-1.521-7.262-2.618l-0.083,1.475
		c1.46,0.003,1.579-0.028,1.93,0.757l-0.102,14.809c-0.642,0.467-1.252-0.057-2.304,0.355L-231.497,278.319L-231.497,278.319z
		 M-236.518,283.157c-1.694-1.243-3.419-2.672-4.804-4.193l0.164-6.094c0.959-0.271,2.008-0.248,2.958,0.308
		c1.008,0.569,2.129,0.522,3.24-0.167c1.05-0.238,1.744-0.258,2.559-0.081l-0.041,6.485
		C-233.801,280.661-235.005,281.94-236.518,283.157L-236.518,283.157z M-219.742,270.328c0.971,0.706,1.766,1.265,2.14,1.469
		c0.007,3.66-0.062,7.155,0.044,10.835c-0.105,0.84-0.292,1.884-0.923,2.618C-220.554,284.376-219.606,277.256-219.742,270.328
		L-219.742,270.328z M-255.014,284.838c-1.504-0.969-0.296-9.856-0.625-13.544c0.295-0.237,0.846-0.354,1.167-0.729
		c0.23-0.268,0.497,0.471,1.016,0.604c0.211,3.152-0.101,5.934-0.101,9.086C-253.453,283.407-253.754,283.786-255.014,284.838
		L-255.014,284.838z M-216.59,284.458c-0.251-4.102-0.046-8.345,0.019-12.348c0.706,0.286,1.408,0.379,1.997,0.8
		c0.355,4.337-0.729,10.429,0.731,14.558C-215.76,287.51-216.485,285.614-216.59,284.458L-216.59,284.458z M-259.878,287.269
		c1.684-2.023,0.683-9.517,0.998-14.246c0.461-0.465,0.766-0.386,1.982-1.553c0,4.309,0.375,8.494,0.059,12.803
		C-257.26,285.217-258.235,287.254-259.878,287.269L-259.878,287.269z M-213.497,285.731c-0.119-3.499-0.269-8.839-0.108-13.211
		c0.581,0.578,1.315,0.785,2.23,1.291l-0.016,12.603l0.571,1.461C-212.639,287.671-212.969,286.519-213.497,285.731
		L-213.497,285.731z M-253.858,255.098c6.706-1.053,11.83-3.518,17.354-8.092c5.872,4.862,12.142,7.001,16.776,7.897
		c1.216,17.655-8.137,28.148-16.803,32.933C-252.399,278.798-253.858,261.298-253.858,255.098L-253.858,255.098z M-250.476,257.681
		c4.332-1.063,10.72-3.621,13.954-6.557c5.347,3.661,9.046,4.912,13.808,6.339c-0.246,11.405-6.329,21.835-13.968,26.571
		C-249.041,275.995-250.497,262.698-250.476,257.681L-250.476,257.681z M-263.196,288.178c1.759-0.873,0.702-9.585,0.913-14.419
		c0.859,0.063,1.437-0.181,2.273-0.418c-0.314,4.521,0.804,9.286-0.575,13.599C-261.004,287.465-263.51,288.599-263.196,288.178
		L-263.196,288.178z M-242.064,236.311c0.477,0.082,0.957,0.244,1.435-0.5c-1.607-1.172-3.104-0.402-3.901-0.165
		c-0.081-0.811,2.227-2.277,4.059-1.478c0.388-0.039,0.281-0.406,0.421-0.608c0.727,1.046,1.53,2.046,2.18,3.14
		C-238.448,236.992-240.6,237.326-242.064,236.311L-242.064,236.311z M-239.007,243.654c-5.02,4.648-6.592,6.591-14.888,8.205
		c-0.021,0.678,0.006,0.975-0.042,1.479c6.844-0.916,12.059-2.908,16.389-7.326C-237.524,245.726-238.727,244.1-239.007,243.654
		L-239.007,243.654z M-238.069,242.899c-0.032,0.339,0.479,0.741,0.504,0.611c0.227-1.193,0.267-1.509,0.521-2.21
		c0.466,0.808,0.837,1.854,1.526,2.588c0.339-0.205,0.493-0.022,0.911-0.383c0.242-0.211-0.577-0.553-1.255-2.318
		c2.02,0.957,2.435,0.258,3.443,0.354c0.571,1.164,0.923,1.809,2.544,2.316c-0.255,0.504-0.752,0.899-1.588,1.126
		c-0.348,0.095,0.208,0.521,0.2,0.762l1.572-0.862c2.218,1.158,6.368-0.025,5.807-4.545c-1.171-1.869-0.95-4.25,2.312-5.752
		c6.012-1.384,6.781,6.027,11.469,8.814c-0.029,0.422-0.181,0.432-0.457,0.4c-2.688,0.146-3.236-2.299-5.495-3.692
		c-0.315,1.277,1.631,1.89,1.951,3.751c-1.687-0.456-3.011-1.38-4.211-2.479c0.372,1.854,1.879,2.854,3.127,3.839
		c-1.459,0.195-2.891,0.527-5.069-1.68c0.228,2.041,1.994,3.188,3.561,4.098c-3.697,0.202-4.15-0.954-5.071-1.562
		c-0.021,1.411,1.201,2.407,2.274,3.242c-3.419,0.264-3.501-1.271-4.25-1.959c0.563,1.766,0.562,1.87,2.177,3.003
		c2.325,1.404,3.938-0.497,4.279-0.937l-0.186,9.165l0.351,0.996c-0.706-0.136-0.989-0.16-1.517-1.007
		c0.13,0.689,0.159,1.547,1.374,1.684c0.183,3.53-0.527,7.185,0.338,10.385c-1.977-0.621-2.417-2.129-2.672-3.959
		c-0.51,1.091-0.263,1.531-0.144,2.66c0.027,0.25-0.323-0.201-0.742-0.604c-0.403,5.054,0.013,12.774-1.171,13.628
		c-2.003-0.502-0.806-5.423-1.434-6.854c-0.769,0.395-0.627,2.732-0.533,4.403c-0.466-0.26-1.058-0.603-1.399-1.149
		c-2.503,4.279-4.217,5.204-5.927,6.906c1.614,2.942,2.232,4.204,5.211,5.904c-1.471,0.945-2.306,1.699-3.845,2.261l-2.881-5.656
		c0.21,2.523,1.539,5.601,2.115,7.913c-1.05,0.525-2.164,0.785-3.004,1.001l-1.489-7.294c0,1.997,0.432,7.051,0.741,9.257h-5.144
		l1.151-9.918c-0.631,2.312-1.255,5.563-1.824,7.874l-2.868-1.327c0.266-1.719,2.226-6.653,2.379-8.174
		c-1.033,1.731-2.601,4.575-3.443,6.258c-1.464-0.557-2.93-1.632-4.085-2.157c2.805-1.683,4.469-2.667,5.512-6.361
		c-0.104,0.101-5.143-5.723-5.865-6.692c-0.316,0.105-0.799,1.028-1.01,1.028c-0.833-1.158-0.542-3.151-1.272-3.41
		c0.115,2.588,0.1,4.024-0.973,6.251c-2.186-1.936-0.496-5.292-1.114-13.514c-0.105,0.21-0.417,0.563-1.306,0.808
		c0-1.053,0.728-0.825,0.292-2.266c-0.117,0.818-1.885,3.051-3.131,2.978c1.846-3.146,0.63-6.634,0.63-10.089
		c1.408-1.062,0.443-1.084,0.864-1.084c-0.808,0.041-0.47,0.037-0.904-0.087c0.953-1.253,0.405-7.5,0.567-9.232
		c1.78,0.896,4.92,1.46,6.324-1.713c-0.569,0.467-1.857,1.832-4.515,1.318c1.283-0.687,1.755-1.348,2.166-2.579
		c-1.237,0.983-2.228,2.351-4.71,1.081c1.796-0.629,2.932-1.52,3.018-3.667c-0.392,1.25-2.402,2.272-4.594,1.25l1.357-0.728
		c0.262-0.197,1.747-1.82,1.323-2.281c-0.947,0.035-2.25,1.852-3.858,1.451c1.202-0.949,1.777-2.975,2.583-4.046
		c-3.692,2.411-3.294,4.044-4.348,4.493c-1.741,0.009-1.945-0.343-2.113-0.787c4.419-2.796,6.197-11.6,12.299-8.776
		c2.498,2.251,1.628,3.759,1.013,6.362c0.269,4.537,5.185,5.371,7.14,2.537c0.8,0.129,0.727,0.094,1.294,0.066
		c-0.031-0.929-0.61-0.646-0.519-1.914c0.547-0.203,1.547,0.344,1.307-0.517c-0.764-0.706-0.346-1.12,0.153-1.314
		c-1.858-1.104-0.748-2.479,1.198-2.221c0.506,0.067,1.013-0.354,1.562-0.706c1.245,1.144,1.418,1.584,3.861,1.696
		c0.127,0.655,0.732,0.997,1.599,1.22c-3.244,1.105-4.643-0.713-5.565-0.833C-238.287,239.666-237.476,241.486-238.069,242.899
		L-238.069,242.899z M-239.857,263.146c-0.084-0.086-1.004,1.01-2.034,1.08c-0.119,0.115-0.277,0.324,0.31,0.388
		c0.401,0.039,1.589-0.411,2.043-1.148C-239.447,263.267-239.5,262.912-239.857,263.146L-239.857,263.146z M-235.845,263.943
		c-0.299-0.052-0.441,0.142-0.358,0.448c-0.088,0.29,0.246,0.537,0.358,0.648c0.06-0.135,0.21,0.27,0.336-0.201
		C-235.719,264.486-235.748,264.226-235.845,263.943L-235.845,263.943z M-236.383,262.802c-0.246,0.246-0.313,0.292-0.447,0.426
		c0.014,0.291,0.029,0.58,0.044,0.872c0.298,0.083,0.44-0.104,0.851-0.581c0.095-0.217,0.104-0.479,0-0.695L-236.383,262.802
		L-236.383,262.802z M-237.496,233.996c0.5,0,0.908,0.203,0.908,0.453s-0.408,0.453-0.908,0.453c-0.499,0-0.908-0.203-0.908-0.453
		S-237.994,233.996-237.496,233.996L-237.496,233.996z"/>
	<path fill-rule="evenodd" clip-rule="evenodd" fill="#FFFFFF" d="M-252.745,255.845l0.364-0.118l0.315,0.972
		c0.05,0.156,0.088,0.256,0.11,0.298c0.041,0.069,0.097,0.114,0.169,0.14c0.072,0.027,0.161,0.023,0.261-0.01
		c0.102-0.034,0.175-0.079,0.213-0.139c0.037-0.059,0.053-0.121,0.043-0.186c-0.009-0.066-0.037-0.169-0.083-0.311l-0.323-0.993
		l0.362-0.119l0.307,0.944c0.069,0.216,0.109,0.371,0.119,0.467c0.009,0.096-0.002,0.182-0.036,0.261
		c-0.032,0.078-0.087,0.149-0.162,0.214c-0.078,0.064-0.187,0.121-0.329,0.168c-0.172,0.055-0.31,0.077-0.411,0.068
		c-0.102-0.012-0.189-0.041-0.26-0.088c-0.072-0.047-0.127-0.102-0.167-0.166c-0.056-0.095-0.118-0.242-0.183-0.444
		L-252.745,255.845L-252.745,255.845z M-250.328,257.06l-0.584-1.797l0.354-0.115l1.125,0.961l-0.389-1.198l0.336-0.111l0.584,1.796
		l-0.365,0.118l-1.103-0.935l0.38,1.172L-250.328,257.06L-250.328,257.06z M-248.543,256.456l-0.584-1.795l0.362-0.117l0.584,1.794
		L-248.543,256.456L-248.543,256.456z M-247.394,256.067l-1.225-1.588l0.394-0.128l0.885,1.182l0.009-1.473l0.383-0.125
		l-0.058,2.007L-247.394,256.067L-247.394,256.067z M-246.172,255.632l-0.615-1.786l1.322-0.455l0.105,0.303l-0.964,0.331
		l0.136,0.396l0.896-0.309l0.104,0.301l-0.897,0.309l0.167,0.486l0.998-0.344l0.104,0.301L-246.172,255.632L-246.172,255.632z
		 M-244.519,255.045l-0.676-1.763l0.749-0.286c0.188-0.075,0.331-0.111,0.429-0.111c0.097-0.002,0.187,0.028,0.27,0.09
		c0.082,0.061,0.144,0.144,0.183,0.247c0.052,0.132,0.055,0.258,0.01,0.374c-0.044,0.115-0.141,0.215-0.287,0.295
		c0.096,0.017,0.178,0.042,0.25,0.076c0.069,0.035,0.174,0.104,0.312,0.209l0.346,0.261l-0.425,0.163l-0.405-0.283
		c-0.144-0.104-0.238-0.166-0.287-0.189c-0.046-0.021-0.091-0.031-0.134-0.031c-0.043,0.002-0.106,0.018-0.187,0.049l-0.073,0.028
		l0.284,0.735L-244.519,255.045L-244.519,255.045z M-244.552,253.889l0.262-0.1c0.17-0.065,0.274-0.112,0.312-0.143
		c0.038-0.032,0.061-0.07,0.069-0.114c0.012-0.045,0.007-0.093-0.012-0.146c-0.024-0.061-0.058-0.103-0.104-0.127
		c-0.046-0.023-0.099-0.029-0.161-0.016c-0.03,0.006-0.118,0.037-0.262,0.094l-0.279,0.106L-244.552,253.889L-244.552,253.889z
		 M-243.099,253.832l0.32-0.189c0.074,0.103,0.153,0.166,0.24,0.19c0.086,0.024,0.182,0.012,0.288-0.038
		c0.11-0.052,0.184-0.115,0.218-0.188c0.035-0.073,0.038-0.142,0.008-0.205c-0.02-0.04-0.047-0.069-0.085-0.086
		c-0.036-0.019-0.09-0.023-0.159-0.018c-0.047,0.006-0.149,0.023-0.311,0.055c-0.207,0.041-0.364,0.045-0.468,0.014
		c-0.15-0.046-0.256-0.136-0.319-0.271c-0.04-0.088-0.053-0.18-0.039-0.279c0.014-0.099,0.058-0.19,0.132-0.273
		c0.075-0.082,0.178-0.154,0.309-0.216c0.215-0.101,0.398-0.129,0.551-0.085c0.153,0.043,0.268,0.143,0.346,0.297l-0.338,0.178
		c-0.055-0.083-0.117-0.131-0.182-0.146c-0.068-0.016-0.149,0-0.247,0.044c-0.101,0.047-0.169,0.104-0.208,0.173
		c-0.023,0.043-0.026,0.088-0.005,0.13c0.02,0.042,0.052,0.069,0.1,0.081c0.061,0.017,0.184,0.006,0.373-0.034
		c0.186-0.038,0.33-0.055,0.429-0.051c0.101,0.006,0.191,0.034,0.271,0.086c0.079,0.052,0.145,0.134,0.195,0.242
		c0.046,0.098,0.062,0.202,0.046,0.312c-0.015,0.113-0.061,0.213-0.141,0.301c-0.081,0.088-0.195,0.166-0.343,0.236
		c-0.217,0.1-0.408,0.127-0.569,0.08C-242.849,254.125-242.988,254.012-243.099,253.832L-243.099,253.832z M-241.194,253.547
		l-0.945-1.637l0.331-0.189l0.944,1.635L-241.194,253.547L-241.194,253.547z M-241.565,251.605l0.583-0.379
		c0.132-0.086,0.238-0.142,0.321-0.166c0.111-0.033,0.223-0.036,0.334-0.009c0.111,0.026,0.219,0.081,0.317,0.157
		c0.101,0.08,0.197,0.195,0.295,0.342c0.084,0.13,0.142,0.254,0.171,0.369c0.035,0.141,0.039,0.271,0.011,0.39
		c-0.021,0.091-0.067,0.181-0.142,0.272c-0.056,0.068-0.144,0.141-0.261,0.218l-0.603,0.39L-241.565,251.605L-241.565,251.605z
		 M-241.072,251.666l0.68,1.049l0.239-0.154c0.089-0.059,0.151-0.105,0.183-0.141c0.045-0.047,0.074-0.096,0.087-0.149
		c0.014-0.054,0.01-0.124-0.015-0.208c-0.024-0.084-0.076-0.189-0.155-0.312c-0.08-0.121-0.152-0.208-0.217-0.26
		c-0.062-0.051-0.128-0.083-0.189-0.095c-0.064-0.012-0.128-0.003-0.197,0.022c-0.051,0.02-0.142,0.07-0.272,0.154L-241.072,251.666
		L-241.072,251.666z M-237.564,251.179l-0.343,0.23l-0.376-0.262l-0.627,0.421l0.112,0.443l-0.335,0.227l-0.446-1.977l0.335-0.226
		L-237.564,251.179L-237.564,251.179z M-238.563,250.951l-0.608-0.434l0.181,0.723L-238.563,250.951L-238.563,250.951z
		 M-238.415,249.469l0.585-0.381c0.133-0.084,0.239-0.14,0.322-0.164c0.11-0.033,0.221-0.036,0.332-0.009
		c0.113,0.026,0.219,0.079,0.319,0.157c0.1,0.08,0.198,0.193,0.295,0.342c0.084,0.13,0.141,0.254,0.17,0.369
		c0.036,0.141,0.04,0.271,0.012,0.389c-0.021,0.092-0.068,0.182-0.143,0.272c-0.056,0.067-0.143,0.141-0.263,0.218l-0.602,0.391
		L-238.415,249.469L-238.415,249.469z M-237.921,249.529l0.683,1.049l0.238-0.154c0.089-0.059,0.15-0.105,0.183-0.141
		c0.043-0.047,0.072-0.098,0.086-0.15c0.015-0.054,0.009-0.121-0.016-0.207c-0.024-0.087-0.076-0.189-0.155-0.311
		c-0.08-0.123-0.152-0.21-0.216-0.264c-0.063-0.051-0.127-0.082-0.19-0.093s-0.129-0.004-0.197,0.022
		c-0.05,0.018-0.142,0.07-0.271,0.154L-237.921,249.529L-237.921,249.529z"/>
	<path fill-rule="evenodd" clip-rule="evenodd" fill="#FFFFFF" d="M-234.31,249.547l0.59,0.369c0.133,0.084,0.229,0.158,0.286,0.221
		c0.077,0.086,0.126,0.188,0.148,0.3c0.024,0.111,0.022,0.231-0.007,0.354c-0.029,0.125-0.092,0.262-0.185,0.412
		c-0.083,0.131-0.171,0.234-0.262,0.311c-0.113,0.09-0.229,0.148-0.348,0.175c-0.091,0.021-0.192,0.015-0.307-0.015
		c-0.085-0.021-0.189-0.07-0.308-0.145l-0.609-0.379L-234.31,249.547L-234.31,249.547z M-234.157,250.021l-0.662,1.06l0.242,0.151
		c0.088,0.056,0.159,0.092,0.205,0.105c0.061,0.021,0.119,0.025,0.172,0.016c0.054-0.01,0.115-0.043,0.182-0.102
		c0.066-0.058,0.139-0.148,0.216-0.273c0.077-0.121,0.125-0.226,0.145-0.305c0.019-0.08,0.021-0.152,0.005-0.211
		c-0.017-0.062-0.051-0.119-0.104-0.17c-0.039-0.039-0.123-0.1-0.255-0.182L-234.157,250.021L-234.157,250.021z M-233.694,252.176
		l0.972-1.619l1.202,0.721l-0.165,0.274l-0.875-0.524l-0.215,0.358l0.814,0.489l-0.165,0.271l-0.812-0.487l-0.265,0.442l0.903,0.541
		l-0.163,0.273L-233.694,252.176L-233.694,252.176z M-230.146,253.389l0.271,0.277c-0.147,0.154-0.302,0.246-0.466,0.272
		c-0.163,0.026-0.333-0.009-0.514-0.103c-0.221-0.119-0.362-0.292-0.424-0.519c-0.062-0.228-0.023-0.472,0.115-0.733
		c0.149-0.277,0.334-0.455,0.559-0.533c0.225-0.076,0.455-0.053,0.688,0.07c0.203,0.107,0.338,0.256,0.401,0.445
		c0.038,0.111,0.041,0.244,0.008,0.397l-0.375-0.098c0.026-0.097,0.021-0.187-0.016-0.271c-0.036-0.083-0.098-0.148-0.188-0.195
		c-0.124-0.067-0.247-0.076-0.371-0.027s-0.239,0.17-0.345,0.369c-0.112,0.211-0.154,0.382-0.126,0.512
		c0.029,0.129,0.103,0.227,0.225,0.292c0.09,0.046,0.181,0.06,0.276,0.036C-230.334,253.561-230.24,253.494-230.146,253.389
		L-230.146,253.389z M-229.543,253.471c0.081-0.175,0.175-0.309,0.283-0.402c0.08-0.07,0.168-0.125,0.268-0.162
		c0.1-0.037,0.198-0.055,0.294-0.051c0.128,0.006,0.262,0.039,0.4,0.105c0.252,0.119,0.417,0.291,0.495,0.517
		c0.08,0.227,0.054,0.48-0.076,0.759c-0.129,0.276-0.304,0.456-0.528,0.543c-0.223,0.087-0.459,0.07-0.711-0.047
		c-0.255-0.118-0.42-0.291-0.498-0.517S-229.67,253.742-229.543,253.471L-229.543,253.471z M-229.182,253.624
		c-0.089,0.194-0.113,0.362-0.07,0.503c0.043,0.143,0.132,0.246,0.271,0.31c0.139,0.064,0.274,0.067,0.409,0.009
		c0.135-0.058,0.249-0.186,0.34-0.383c0.091-0.197,0.118-0.363,0.077-0.501c-0.042-0.136-0.133-0.237-0.276-0.304
		s-0.279-0.071-0.413-0.014C-228.975,253.301-229.089,253.428-229.182,253.624L-229.182,253.624z M-228.012,255.213l0.703-1.736
		l0.353,0.143l-0.582,1.441l0.879,0.354l-0.12,0.297L-228.012,255.213L-228.012,255.213z M-226.524,255.804l0.615-1.785l0.361,0.123
		l-0.615,1.785L-226.524,255.804L-226.524,255.804z M-225.835,256.063l0.552-1.808l0.546,0.168l-0.05,1.331l0.701-1.132l0.547,0.168
		l-0.552,1.804l-0.338-0.102l0.435-1.423l-0.794,1.312l-0.352-0.106l0.078-1.532l-0.435,1.423L-225.835,256.063L-225.835,256.063z
		 M-222.09,257.157l-0.401-0.106l-0.049-0.458l-0.729-0.195l-0.261,0.375l-0.39-0.105l1.198-1.634l0.389,0.105L-222.09,257.157
		L-222.09,257.157z M-222.576,256.255l-0.069-0.745l-0.428,0.612L-222.576,256.255L-222.576,256.255z"/>
	<path fill-rule="evenodd" clip-rule="evenodd" fill="#FFFFFF" d="M-249.799,272.409l1.712-0.799l0.591,1.27l-0.289,0.135
		l-0.431-0.924l-0.379,0.178l0.401,0.859l-0.29,0.135l-0.4-0.859l-0.466,0.217l0.446,0.955l-0.289,0.137L-249.799,272.409
		L-249.799,272.409z M-248.539,273.603l0.212,0.309c-0.099,0.079-0.157,0.164-0.175,0.252c-0.018,0.088,0.001,0.182,0.058,0.283
		c0.059,0.107,0.126,0.177,0.203,0.205c0.075,0.029,0.144,0.027,0.205-0.006c0.039-0.022,0.066-0.053,0.08-0.09
		c0.016-0.039,0.018-0.092,0.005-0.16c-0.008-0.047-0.033-0.148-0.076-0.307c-0.056-0.203-0.07-0.359-0.044-0.467
		c0.033-0.152,0.116-0.265,0.247-0.338c0.084-0.045,0.176-0.064,0.276-0.059c0.099,0.008,0.193,0.045,0.281,0.113
		c0.088,0.069,0.168,0.166,0.237,0.294c0.115,0.208,0.157,0.389,0.125,0.543c-0.033,0.157-0.125,0.276-0.273,0.368l-0.2-0.326
		c0.077-0.062,0.122-0.125,0.133-0.193c0.011-0.066-0.01-0.148-0.062-0.242c-0.053-0.097-0.115-0.16-0.186-0.195
		c-0.045-0.021-0.089-0.02-0.131,0.004c-0.04,0.021-0.063,0.058-0.073,0.105c-0.012,0.062,0.008,0.184,0.06,0.368
		c0.051,0.183,0.079,0.325,0.082,0.427c0.001,0.1-0.021,0.191-0.067,0.275c-0.047,0.082-0.125,0.153-0.227,0.211
		c-0.095,0.053-0.199,0.076-0.31,0.068s-0.214-0.046-0.308-0.121c-0.094-0.074-0.18-0.183-0.259-0.324
		c-0.117-0.211-0.157-0.396-0.123-0.563C-248.815,273.873-248.711,273.728-248.539,273.603L-248.539,273.603z M-247.933,275.872
		l1.331-0.832l-0.297-0.475l0.271-0.17l0.795,1.273l-0.272,0.168l-0.295-0.473l-1.331,0.832L-247.933,275.872L-247.933,275.872z
		 M-245.784,275.819l0.219,0.312l-0.839,0.587c-0.132,0.093-0.216,0.157-0.249,0.191c-0.053,0.059-0.084,0.127-0.085,0.203
		c-0.003,0.078,0.025,0.159,0.087,0.246c0.062,0.089,0.126,0.144,0.194,0.164c0.067,0.018,0.132,0.014,0.19-0.014
		c0.059-0.027,0.15-0.084,0.272-0.17l0.856-0.6l0.218,0.312l-0.813,0.568c-0.185,0.129-0.322,0.213-0.411,0.252
		c-0.089,0.037-0.175,0.051-0.26,0.041c-0.083-0.008-0.168-0.039-0.253-0.093c-0.084-0.054-0.169-0.144-0.256-0.266
		c-0.102-0.147-0.166-0.272-0.184-0.372c-0.019-0.1-0.016-0.19,0.007-0.273c0.022-0.082,0.06-0.151,0.109-0.209
		c0.075-0.081,0.198-0.182,0.371-0.305L-245.784,275.819L-245.784,275.819z M-244.728,277.318l0.418,0.556
		c0.095,0.127,0.157,0.229,0.187,0.31c0.041,0.108,0.052,0.22,0.033,0.333c-0.018,0.113-0.064,0.222-0.135,0.328
		c-0.072,0.105-0.179,0.211-0.32,0.317c-0.124,0.094-0.242,0.157-0.356,0.194c-0.136,0.047-0.267,0.059-0.388,0.041
		c-0.091-0.016-0.186-0.057-0.281-0.124c-0.072-0.05-0.15-0.132-0.235-0.245l-0.432-0.572L-244.728,277.318L-244.728,277.318z
		 M-244.757,277.817l-0.998,0.752l0.172,0.227c0.062,0.085,0.114,0.143,0.152,0.173c0.05,0.038,0.102,0.065,0.155,0.076
		c0.055,0.011,0.123,0,0.206-0.031c0.083-0.028,0.183-0.089,0.299-0.176c0.117-0.089,0.198-0.166,0.244-0.233
		c0.049-0.068,0.075-0.135,0.083-0.197c0.007-0.063-0.004-0.127-0.036-0.194c-0.022-0.05-0.08-0.136-0.174-0.261L-244.757,277.817
		L-244.757,277.817z M-245.099,279.974l1.468-1.189l0.239,0.297l-1.466,1.188L-245.099,279.974L-245.099,279.974z M-243.5,281.845
		l-0.272-0.314l0.216-0.404l-0.496-0.572l-0.426,0.165l-0.265-0.305l1.909-0.685l0.264,0.305L-243.5,281.845L-243.5,281.845z
		 M-243.396,280.825l0.358-0.656l-0.697,0.266L-243.396,280.825L-243.396,280.825z"/>
	<path fill-rule="evenodd" clip-rule="evenodd" fill="#FFFFFF" d="M-229.749,282.146l-1.109-1.11l-0.395,0.397l-0.227-0.227
		l1.061-1.062l0.226,0.226l-0.394,0.395l1.108,1.109L-229.749,282.146L-229.749,282.146z M-228.92,281.3l-1.426-1.238l0.527-0.605
		c0.131-0.152,0.241-0.252,0.327-0.299c0.085-0.047,0.18-0.062,0.282-0.049c0.1,0.018,0.193,0.062,0.278,0.134
		c0.106,0.094,0.167,0.204,0.182,0.325c0.015,0.123-0.023,0.255-0.114,0.396c0.091-0.03,0.177-0.048,0.254-0.05
		c0.079-0.003,0.203,0.011,0.373,0.036l0.431,0.068l-0.3,0.345l-0.491-0.062c-0.175-0.023-0.289-0.033-0.342-0.031
		c-0.052,0.004-0.096,0.016-0.134,0.035c-0.038,0.022-0.083,0.066-0.142,0.132l-0.049,0.058l0.595,0.518L-228.92,281.3
		L-228.92,281.3z M-229.493,280.298l0.185-0.213c0.121-0.139,0.19-0.229,0.207-0.273c0.019-0.045,0.022-0.089,0.01-0.133
		c-0.011-0.045-0.038-0.086-0.081-0.125c-0.047-0.041-0.098-0.061-0.149-0.062c-0.052,0-0.103,0.021-0.151,0.062
		c-0.023,0.02-0.086,0.09-0.188,0.206l-0.194,0.225L-229.493,280.298L-229.493,280.298z M-226.661,278.481l-0.25,0.332l-0.443-0.127
		l-0.453,0.604l0.248,0.383l-0.244,0.324l-1.064-1.727l0.243-0.322L-226.661,278.481L-226.661,278.481z M-227.68,278.593
		l-0.718-0.214l0.407,0.626L-227.68,278.593L-227.68,278.593z M-228.119,277.275l0.421-0.625c0.084-0.126,0.15-0.213,0.204-0.269
		c0.051-0.053,0.108-0.093,0.175-0.118c0.064-0.026,0.134-0.037,0.21-0.031c0.078,0.003,0.149,0.03,0.215,0.075
		c0.073,0.049,0.128,0.113,0.163,0.195c0.034,0.08,0.043,0.165,0.029,0.252c0.091-0.074,0.189-0.116,0.29-0.123
		c0.103-0.006,0.197,0.021,0.288,0.082c0.071,0.049,0.13,0.111,0.174,0.19c0.046,0.079,0.069,0.159,0.07,0.243
		c0.001,0.085-0.021,0.173-0.069,0.264c-0.03,0.055-0.113,0.186-0.246,0.387l-0.36,0.533L-228.119,277.275L-228.119,277.275z
		 M-227.645,277.136l0.363,0.242l0.139-0.205c0.083-0.125,0.133-0.201,0.15-0.234c0.03-0.058,0.041-0.112,0.03-0.164
		c-0.01-0.053-0.041-0.096-0.091-0.13c-0.048-0.032-0.097-0.046-0.145-0.04s-0.094,0.034-0.135,0.081
		c-0.025,0.03-0.087,0.118-0.188,0.268L-227.645,277.136L-227.645,277.136z M-227.023,277.555l0.419,0.282l0.196-0.292
		c0.077-0.114,0.123-0.188,0.136-0.224c0.024-0.053,0.028-0.105,0.016-0.156c-0.014-0.053-0.047-0.098-0.102-0.135
		c-0.046-0.031-0.095-0.047-0.144-0.047c-0.049,0-0.095,0.02-0.138,0.051c-0.045,0.033-0.115,0.121-0.212,0.265L-227.023,277.555
		L-227.023,277.555z M-224.596,275.302l-0.22,0.352l-0.452-0.087l-0.399,0.641l0.28,0.358l-0.214,0.344l-1.212-1.625l0.213-0.342
		L-224.596,275.302L-224.596,275.302z M-225.603,275.501l-0.732-0.15l0.46,0.588L-225.603,275.501L-225.603,275.501z
		 M-225.848,273.594l0.185-0.333l1.046,0.58c0.137,0.075,0.235,0.146,0.295,0.211c0.079,0.085,0.123,0.187,0.135,0.304
		c0.01,0.118-0.022,0.245-0.1,0.384c-0.091,0.163-0.204,0.264-0.345,0.301c-0.141,0.037-0.298,0.008-0.475-0.09l0.139-0.334
		c0.097,0.048,0.171,0.072,0.224,0.068c0.079-0.002,0.139-0.039,0.18-0.115c0.041-0.072,0.049-0.138,0.023-0.191
		c-0.024-0.055-0.104-0.119-0.238-0.192L-225.848,273.594L-225.848,273.594z M-223.085,272.276l-0.182,0.373l-0.458-0.038
		l-0.332,0.677l0.318,0.328l-0.177,0.363l-1.376-1.49l0.176-0.359L-223.085,272.276L-223.085,272.276z M-224.064,272.579
		l-0.745-0.071l0.518,0.536L-224.064,272.579L-224.064,272.579z"/>
	<path fill-rule="evenodd" clip-rule="evenodd" fill="#FFFFFF" d="M-234.711,286.359l-1.137-1.508l0.306-0.231l0.446,0.595
		l0.598-0.451l-0.449-0.593l0.306-0.229l1.136,1.509l-0.304,0.229l-0.497-0.658l-0.595,0.449l0.496,0.659L-234.711,286.359
		L-234.711,286.359z M-231.904,284.124l-0.318,0.266l-0.402-0.223l-0.579,0.485l0.156,0.428l-0.309,0.262l-0.651-1.919l0.31-0.262
		L-231.904,284.124L-231.904,284.124z M-232.922,284.002l-0.65-0.369l0.254,0.7L-232.922,284.002L-232.922,284.002z"/>
	<path fill-rule="evenodd" clip-rule="evenodd" fill="#FFFFFF" d="M-241.099,284.015l1.205-1.435l0.292,0.243l-0.999,1.191
		l0.727,0.61l-0.206,0.243L-241.099,284.015L-241.099,284.015z M-238.723,283.545l0.304,0.229l-0.614,0.816
		c-0.099,0.13-0.158,0.218-0.18,0.262c-0.033,0.071-0.04,0.144-0.018,0.218c0.02,0.074,0.073,0.145,0.158,0.208
		c0.085,0.065,0.166,0.097,0.236,0.095s0.129-0.025,0.177-0.071c0.048-0.044,0.117-0.127,0.207-0.245l0.628-0.835l0.305,0.229
		l-0.598,0.791c-0.137,0.183-0.241,0.305-0.313,0.367c-0.073,0.062-0.15,0.102-0.234,0.121c-0.082,0.017-0.173,0.014-0.271-0.012
		c-0.096-0.025-0.203-0.082-0.324-0.173c-0.144-0.108-0.24-0.208-0.291-0.297c-0.049-0.09-0.075-0.177-0.078-0.263
		c-0.003-0.085,0.011-0.162,0.041-0.231c0.045-0.101,0.131-0.235,0.259-0.404L-238.723,283.545L-238.723,283.545z M-236.955,286.415
		l0.208,0.327c-0.175,0.123-0.346,0.179-0.512,0.171c-0.165-0.009-0.325-0.077-0.481-0.208c-0.191-0.16-0.294-0.359-0.308-0.593
		c-0.013-0.235,0.075-0.468,0.266-0.696c0.202-0.239,0.421-0.375,0.656-0.404c0.238-0.028,0.458,0.043,0.66,0.213
		c0.176,0.148,0.277,0.321,0.297,0.52c0.015,0.116-0.011,0.246-0.074,0.39l-0.347-0.173c0.046-0.091,0.061-0.18,0.043-0.27
		c-0.019-0.088-0.066-0.165-0.144-0.229c-0.109-0.091-0.226-0.124-0.359-0.103c-0.131,0.02-0.269,0.115-0.414,0.289
		c-0.153,0.184-0.23,0.341-0.229,0.473c0,0.133,0.052,0.244,0.158,0.332c0.078,0.065,0.166,0.098,0.262,0.095
		C-237.175,286.546-237.069,286.502-236.955,286.415L-236.955,286.415z"/>
	<polygon fill-rule="evenodd" clip-rule="evenodd" fill="#FFFFFF" points="-194.365,238.698 -196.342,236.345 -191.417,228.526 
		-200.301,231.635 -202.131,229.454 -188.122,217.714 -186.81,219.275 -199.893,230.212 -187.883,226.055 -194.295,236.875 
		-181.224,225.924 -180.354,226.959 -194.365,238.698 	"/>
	<polygon fill-rule="evenodd" clip-rule="evenodd" fill="#FFFFFF" points="-176.735,234.026 -193.03,242.318 -194.134,240.155 
		-177.839,231.863 -176.735,234.026 	"/>
	<path fill-rule="evenodd" clip-rule="evenodd" fill="#FFFFFF" d="M-189.652,250.969l15.938-6.109l-0.36-0.939
		c-0.451-1.175-0.96-1.936-1.533-2.296c-0.575-0.36-1.46-0.307-2.673,0.158l-0.31-0.806l4.086-1.566l2.797,7.281l-17.074,6.545
		L-189.652,250.969L-189.652,250.969z"/>
	<path fill-rule="evenodd" clip-rule="evenodd" fill="#FFFFFF" d="M-172.672,279.093l1.048-0.438c0.516,1.197,0.8,2.43,0.851,3.689
		c0.049,1.263-0.138,2.545-0.567,3.86c-0.925,2.849-2.583,4.9-4.969,6.159s-4.952,1.439-7.694,0.549
		c-2.627-0.854-4.554-2.501-5.791-4.956c-1.237-2.449-1.416-5.02-0.542-7.704c0.297-0.917,0.716-1.785,1.258-2.602
		c0.544-0.815,1.212-1.602,2.008-2.357l0.759-0.627l3.367,1.094l-0.256,0.79l-0.071-0.023c-1.145-0.371-2.299-0.135-3.458,0.706
		c-1.154,0.848-2.022,2.148-2.596,3.912c-0.667,2.051-0.586,3.876,0.246,5.481c0.833,1.609,2.376,2.777,4.629,3.508
		c1.278,0.415,2.551,0.615,3.827,0.602c1.277-0.017,2.49-0.243,3.634-0.688c1.273-0.486,2.267-1.15,2.992-1.991
		c0.724-0.842,1.275-1.849,1.658-3.021c0.328-1.007,0.489-1.987,0.48-2.937C-171.865,281.148-172.135,280.146-172.672,279.093
		L-172.672,279.093z"/>
	<path fill-rule="evenodd" clip-rule="evenodd" fill="#FFFFFF" d="M-199.57,296.491l2.951,2.749l-0.594,0.636
		c-0.849-0.792-1.612-1.119-2.291-0.978c-0.687,0.143-1.48,0.705-2.396,1.684l-0.951,1.019l3.415,3.18l2.104-2.257l0.99,0.924
		l-2.104,2.255l7.388,6.883l1.079-1.154c0.85-0.91,1.298-1.722,1.353-2.428c0.055-0.703-0.359-1.466-1.235-2.282l0.593-0.635
		l3.074,2.862l-5.737,6.145l-13.375-12.458L-199.57,296.491L-199.57,296.491z"/>
	<polygon fill-rule="evenodd" clip-rule="evenodd" fill="#FFFFFF" points="-283.04,313.771 -271.042,299.986 -269.205,301.579 
		-281.204,315.365 -283.04,313.771 	"/>
	<path fill-rule="evenodd" clip-rule="evenodd" fill="#FFFFFF" d="M-277.587,299.089c0.871-0.586,1.381-1.183,1.521-1.773
		c0.143-0.596-0.014-1.232-0.465-1.904c-0.375-0.552-0.824-0.932-1.35-1.123c-0.528-0.197-1.046-0.121-1.555,0.221
		c-0.478,0.324-0.789,0.791-0.937,1.414c-0.145,0.623-0.15,1.703-0.008,3.244c0.014,0.171,0.035,0.415,0.068,0.73
		c0.38,3.786-0.289,6.256-2.005,7.412c-1.605,1.082-3.279,1.391-5.025,0.928c-1.747-0.469-3.25-1.629-4.51-3.496
		c-1.066-1.579-1.514-3.189-1.342-4.819c0.17-1.63,0.908-2.882,2.194-3.747c1.123-0.754,2.292-1.025,3.512-0.814
		c1.218,0.207,2.192,0.851,2.916,1.922c0.619,0.917,0.904,1.86,0.84,2.83c-0.056,0.972-0.432,1.691-1.124,2.157
		c-0.52,0.35-1.043,0.459-1.567,0.331c-0.525-0.128-0.977-0.478-1.363-1.05c-0.121-0.178-0.205-0.335-0.257-0.466
		c-0.05-0.138-0.081-0.269-0.086-0.394l0.418-0.255c0.273,0.372,0.62,0.59,1.047,0.653c0.423,0.066,0.838-0.033,1.229-0.297
		c0.464-0.313,0.663-0.712,0.602-1.195c-0.062-0.488-0.288-1.012-0.674-1.585c-0.511-0.754-1.155-1.239-1.934-1.447
		c-0.788-0.208-1.601-0.027-2.45,0.545c-1.137,0.766-1.739,1.846-1.82,3.237c-0.075,1.394,0.325,2.739,1.198,4.032
		c0.84,1.242,1.85,2.057,3.026,2.455c1.182,0.398,2.325,0.217,3.437-0.531c0.678-0.457,1.128-1.034,1.348-1.742
		c0.222-0.703,0.261-1.935,0.12-3.687c-0.013-0.19-0.042-0.48-0.071-0.862c-0.266-3.212,0.289-5.279,1.658-6.201
		c0.919-0.619,1.911-0.822,2.979-0.614s1.906,0.755,2.516,1.658c0.24,0.356,0.419,0.718,0.535,1.069
		c0.12,0.357,0.198,0.772,0.229,1.246l0.454,0.672l-2.846,1.917L-277.587,299.089L-277.587,299.089z"/>
	<path fill-rule="evenodd" clip-rule="evenodd" fill="#FFFFFF" d="M-286.467,271.349l-4.033,0.141l-0.032-0.867
		c1.162-0.041,1.933-0.35,2.312-0.928c0.387-0.585,0.549-1.544,0.501-2.883l-0.048-1.393l-4.665,0.164l0.108,3.081l-1.354,0.046
		l-0.108-3.082l-10.098,0.354l0.055,1.576c0.043,1.244,0.303,2.134,0.763,2.672c0.46,0.539,1.292,0.783,2.489,0.742l0.03,0.868
		l-4.2,0.146l-0.293-8.396l18.278-0.637L-286.467,271.349L-286.467,271.349z"/>
	<polygon fill-rule="evenodd" clip-rule="evenodd" fill="#FFFFFF" points="-286.605,260.862 -303.395,250.943 -303.036,249.505 
		-283.528,248.54 -284.146,251.018 -299.759,251.488 -286.24,259.398 -286.605,260.862 	"/>
	<polygon fill-rule="evenodd" clip-rule="evenodd" fill="#FFFFFF" points="-298.663,237.034 -282.088,244.754 -283.115,246.952 
		-299.691,239.234 -298.663,237.034 	"/>
	<polygon fill-rule="evenodd" clip-rule="evenodd" fill="#FFFFFF" points="-275.055,232.472 -275.758,233.598 -291.731,233.105 
		-280.023,240.414 -280.724,241.535 -296.461,231.713 -295.76,230.592 -279.681,231.15 -291.268,223.92 -290.563,222.794 
		-275.055,232.472 	"/>
	<path fill-rule="evenodd" clip-rule="evenodd" fill="#FFFFFF" d="M-303.724,280.055l17.187-6.247l0.832,2.283l-1.104,0.4
		c0.772,0.568,1.416,1.184,1.928,1.84c0.51,0.651,0.916,1.385,1.21,2.189c0.726,1.992,0.658,3.948-0.196,5.868
		c-0.86,1.923-2.232,3.226-4.124,3.914c-2.028,0.736-3.926,0.717-5.693-0.061c-1.76-0.772-3.081-2.168-3.956-4.186l-0.554,4.152
		c-0.566,4.349-0.76,7.441-0.583,9.266c0.173,1.832,0.779,3.893,1.819,6.188c0.768,1.241,1.381,2.052,1.84,2.423
		c0.455,0.379,1.212,0.853,2.254,1.437l-1.011,0.29c-1.324-0.588-2.342-1.295-3.057-2.126c-0.716-0.828-1.555-2.419-2.531-4.77
		c-0.733-2.444-0.958-5.778-0.664-10.001c0.288-4.225,0.805-8.271,1.543-12.143l-4.307,1.564L-303.724,280.055L-303.724,280.055z
		 M-288.069,276.949l-9.467,3.442l1.063,0.252c-0.26,1.153-0.385,2.092-0.39,2.828c-0.004,0.738,0.096,1.396,0.314,1.995
		c0.513,1.405,1.417,2.393,2.71,2.963c1.292,0.568,2.704,0.576,4.221,0.025c1.788-0.65,3.12-1.801,3.989-3.453
		c0.869-1.653,1.009-3.288,0.419-4.904c-0.25-0.683-0.615-1.291-1.097-1.825C-286.789,277.745-287.377,277.299-288.069,276.949
		L-288.069,276.949z"/>
	<path fill-rule="evenodd" clip-rule="evenodd" fill="#FFFFFF" d="M-276.751,319.253l9.688-15.489l1.437,0.896
		c0.496,0.311,1.205,0.725,2.126,1.242c0.926,0.521,1.581,0.91,1.976,1.156c2.4,1.498,3.924,3.445,4.576,5.854
		c0.647,2.405,0.273,4.72-1.12,6.945c-1.446,2.314-3.483,3.717-6.117,4.207c-2.626,0.488-5.219-0.062-7.768-1.654
		c-0.343-0.213-0.915-0.592-1.709-1.143c-0.799-0.555-1.434-0.979-1.904-1.271L-276.751,319.253L-276.751,319.253z
		 M-273.888,318.999c0.401,0.495,0.814,0.936,1.235,1.317c0.417,0.38,0.851,0.707,1.292,0.981c1.913,1.404,3.927,1.867,6.032,1.393
		c2.113-0.479,3.795-1.719,5.049-3.723c1.248-1.994,1.629-4.079,1.146-6.258c-0.479-2.178-1.75-3.8-3.812-4.861
		c-0.414-0.26-0.893-0.496-1.42-0.697c-0.532-0.205-1.123-0.385-1.769-0.543L-273.888,318.999L-273.888,318.999z"/>
	<path fill-rule="evenodd" clip-rule="evenodd" fill="#FFFFFF" d="M-258.53,328.847l10.135-16.702l0.931,0.23l0.936,19.46
		l-2.458-0.609l-0.178-9.131l-3.366-0.84l-4.709,7.912L-258.53,328.847L-258.53,328.847z M-251.681,319.478l2.493,0.623
		l-0.051-4.817L-251.681,319.478L-251.681,319.478z"/>
	<path fill-rule="evenodd" clip-rule="evenodd" fill="#FFFFFF" d="M-241.641,332.231l-0.958-18.237l1.691-0.089
		c0.582-0.029,1.403-0.098,2.454-0.199c1.057-0.103,1.818-0.16,2.282-0.186c2.828-0.147,5.195,0.574,7.11,2.174
		c1.911,1.6,2.936,3.711,3.072,6.33c0.142,2.725-0.721,5.039-2.596,6.949c-1.869,1.906-4.312,2.938-7.311,3.096
		c-0.404,0.021-1.091,0.041-2.058,0.043c-0.971,0.002-1.735,0.02-2.29,0.049L-241.641,332.231L-241.641,332.231z M-239.44,330.382
		c0.612,0.178,1.204,0.303,1.768,0.375c0.56,0.07,1.104,0.092,1.621,0.062c2.372,0.055,4.29-0.719,5.74-2.314
		c1.456-1.604,2.122-3.58,1.998-5.939c-0.122-2.351-1.005-4.276-2.654-5.781c-1.645-1.512-3.615-2.112-5.915-1.801
		c-0.488,0.025-1.016,0.107-1.564,0.242c-0.554,0.137-1.14,0.328-1.761,0.568L-239.44,330.382L-239.44,330.382z"/>
	<path fill-rule="evenodd" clip-rule="evenodd" fill="#FFFFFF" d="M-210.097,327.192l-9.418-15.656l1.45-0.87
		c0.501-0.3,1.194-0.743,2.073-1.329c0.885-0.586,1.53-0.993,1.928-1.232c2.429-1.455,4.857-1.928,7.3-1.414
		c2.44,0.516,4.335,1.899,5.688,4.148c1.407,2.338,1.733,4.789,0.975,7.355c-0.754,2.557-2.425,4.615-5,6.16
		c-0.347,0.209-0.944,0.545-1.797,1.002c-0.856,0.459-1.523,0.832-1.998,1.115L-210.097,327.192L-210.097,327.192z
		 M-209.023,324.528c0.624-0.131,1.205-0.301,1.735-0.502c0.529-0.197,1.019-0.436,1.462-0.703c2.121-1.064,3.451-2.646,3.981-4.735
		c0.532-2.099,0.19-4.157-1.029-6.183c-1.212-2.017-2.897-3.303-5.062-3.859c-2.162-0.563-4.185-0.169-6.069,1.184
		c-0.418,0.251-0.846,0.57-1.266,0.947c-0.424,0.379-0.854,0.824-1.288,1.328L-209.023,324.528L-209.023,324.528z"/>
	<path fill-rule="evenodd" clip-rule="evenodd" fill="#FFFFFF" d="M-169.001,261.587c0.15,2.859-0.625,5.267-2.332,7.211
		c-1.701,1.949-3.932,2.996-6.694,3.14c-2.648,0.14-4.947-0.683-6.892-2.472c-1.95-1.781-2.993-4.04-3.137-6.768
		c-0.148-2.807,0.657-5.229,2.413-7.263c1.754-2.035,3.95-3.116,6.58-3.254c2.708-0.142,5.021,0.679,6.946,2.463
		C-170.191,256.432-169.15,258.745-169.001,261.587L-169.001,261.587z M-170.995,260.892c-0.106-2.016-0.781-3.619-2.031-4.816
		c-1.246-1.192-2.809-1.743-4.689-1.646c-1.143,0.061-2.235,0.32-3.266,0.791c-1.037,0.466-1.97,1.123-2.816,1.954
		c-0.931,0.937-1.611,1.938-2.044,3.009c-0.433,1.073-0.619,2.222-0.553,3.458c0.099,1.88,0.786,3.369,2.061,4.471
		c1.276,1.102,2.907,1.6,4.896,1.496c1.167-0.061,2.258-0.314,3.291-0.762c1.035-0.441,1.939-1.055,2.728-1.842
		c0.891-0.881,1.527-1.815,1.924-2.813C-171.102,263.193-170.933,262.094-170.995,260.892L-170.995,260.892z"/>
	<path fill-rule="evenodd" clip-rule="evenodd" fill="#FFFFFF" d="M-191.29,214.543l-16.064,11.145l-0.756-0.59l7.072-18.16
		l1.997,1.558l-3.557,8.413l2.733,2.134l7.526-5.316L-191.29,214.543L-191.29,214.543z M-201.364,220.32l-2.024-1.579l-1.915,4.421
		L-201.364,220.32L-201.364,220.32z"/>
	<path fill-rule="evenodd" clip-rule="evenodd" fill="#FFFFFF" d="M-266.564,224.919l-10.686-10.397
		c-0.85-0.826-1.698-1.21-2.543-1.152c-0.848,0.066-1.697,0.527-2.542,1.393c-0.648,0.666-0.941,1.454-0.879,2.354
		c0.057,0.904,0.631,1.886,1.715,2.941l9.674,9.41c-0.461,0.461-0.914,0.93-1.357,1.406l-10.02-9.746
		c-1.327-1.292-1.964-2.668-1.916-4.143c0.049-1.473,0.743-2.902,2.091-4.284c1.326-1.36,2.697-2.022,4.122-1.999
		c1.421,0.027,2.847,0.74,4.289,2.145l10.585,10.298C-264.894,223.709-265.739,224.301-266.564,224.919L-266.564,224.919z"/>
	<path fill-rule="evenodd" clip-rule="evenodd" fill="#FFFFFF" d="M-259.391,207.826c2.38,0,4.323,1.941,4.323,4.322
		s-1.943,4.323-4.323,4.323c-2.381,0-4.323-1.942-4.323-4.323S-261.772,207.826-259.391,207.826L-259.391,207.826z"/>
	<path fill-rule="evenodd" clip-rule="evenodd" fill="#FFFFFF" d="M-239.698,202.543c2.382,0,4.323,1.941,4.323,4.322
		c0,2.38-1.941,4.324-4.323,4.324c-2.381,0-4.323-1.944-4.323-4.324C-244.02,204.484-242.079,202.543-239.698,202.543
		L-239.698,202.543z"/>
	<path fill-rule="evenodd" clip-rule="evenodd" fill="#FFFFFF" d="M-219.524,205.903c2.382,0,4.322,1.944,4.322,4.324
		c0,2.382-1.94,4.323-4.322,4.323c-2.38,0-4.323-1.941-4.323-4.323C-223.846,207.848-221.904,205.903-219.524,205.903
		L-219.524,205.903z"/>
</g>
</svg>
